<svg width="40" height="40" viewBox="0 0 40 40" fill="none" xmlns="http://www.w3.org/2000/svg">
<mask id="mask0_1801_606" style="mask-type:alpha" maskUnits="userSpaceOnUse" x="0" y="0" width="40" height="40">
<rect width="40" height="40" fill="#D9D9D9"/>
</mask>
<g mask="url(#mask0_1801_606)">
<path d="M20.5027 35C18.3589 35 16.3439 34.5932 14.4576 33.7796C12.5712 32.966 10.9303 31.8618 9.53499 30.4671C8.1396 29.0723 7.03492 27.4322 6.22095 25.5466C5.40699 23.6612 5 21.6465 5 19.5027C5 17.3589 5.40681 15.3439 6.22042 13.4576C7.03404 11.5712 8.13821 9.93035 9.53295 8.53499C10.9277 7.1396 12.5678 6.03493 14.4534 5.22096C16.3388 4.40699 18.3535 4 20.4973 4C22.6411 4 24.6561 4.40681 26.5424 5.22043C28.4288 6.03404 30.0697 7.13821 31.465 8.53295C32.8604 9.92771 33.9651 11.5678 34.779 13.4534C35.593 15.3388 36 17.3535 36 19.4973C36 21.6411 35.5932 23.6561 34.7796 25.5424C33.966 27.4288 32.8618 29.0697 31.4671 30.465C30.0723 31.8604 28.4322 32.9651 26.5466 33.779C24.6612 34.593 22.6465 35 20.5027 35ZM21.8148 20.7236L19.6403 22.8981C19.4144 23.124 19.304 23.4054 19.3093 23.7421C19.3145 24.0789 19.4301 24.3602 19.656 24.5861C19.8819 24.812 20.1667 24.925 20.5104 24.925C20.8542 24.925 21.1373 24.812 21.3597 24.5861L25.4136 20.5323C25.7085 20.2373 25.856 19.8932 25.856 19.5C25.856 19.1068 25.7085 18.7627 25.4136 18.4677L21.344 14.3982C21.1181 14.1723 20.8368 14.0593 20.5 14.0593C20.1632 14.0593 19.8819 14.1723 19.656 14.3982C19.4301 14.6241 19.3171 14.9089 19.3171 15.2527C19.3171 15.5964 19.4301 15.8795 19.656 16.1019L21.8148 18.2764H15.6052C15.2585 18.2764 14.9679 18.3937 14.7334 18.6283C14.4989 18.8629 14.3816 19.1537 14.3816 19.5005C14.3816 19.8474 14.4989 20.138 14.7334 20.3722C14.9679 20.6065 15.2585 20.7236 15.6052 20.7236H21.8148Z" fill="#2405F2"/>
</g>
</svg>
