<svg width="21" height="20" viewBox="0 0 21 20" fill="none" xmlns="http://www.w3.org/2000/svg">
<mask id="mask0_1801_1421" style="mask-type:alpha" maskUnits="userSpaceOnUse" x="0" y="0" width="46" height="45">
<rect width="45" height="45" transform="matrix(-1 0 0 1 45.5 0)" fill="#D9D9D9"/>
</mask>
<g mask="url(#mask0_1801_1421)">
<path d="M4.70898 18.3337C6.50065 18.3337 8.24718 17.9344 9.94857 17.1357C11.65 16.3371 13.1569 15.2816 14.4694 13.9691C15.7819 12.6566 16.8375 11.1496 17.6361 9.44824C18.4347 7.74685 18.834 6.00033 18.834 4.20866C18.834 3.95866 18.7507 3.75033 18.584 3.58366C18.4173 3.41699 18.209 3.33366 17.959 3.33366H14.584C14.3895 3.33366 14.2159 3.39616 14.0632 3.52116C13.9104 3.64616 13.8201 3.80588 13.7923 4.00033L13.2507 6.91699C13.2229 7.11144 13.2263 7.28852 13.2611 7.44824C13.2958 7.60796 13.3757 7.75033 13.5007 7.87533L15.5007 9.91699C14.9173 10.917 14.1882 11.8545 13.3132 12.7295C12.4382 13.6045 11.4729 14.3614 10.4173 15.0003L8.45898 13.042C8.33398 12.917 8.17079 12.8232 7.9694 12.7607C7.76801 12.6982 7.5701 12.6809 7.37565 12.7087L4.50065 13.292C4.30621 13.3337 4.14649 13.4274 4.02149 13.5732C3.89649 13.7191 3.83398 13.8892 3.83398 14.0837V17.4587C3.83398 17.7087 3.91732 17.917 4.08398 18.0837C4.25065 18.2503 4.45898 18.3337 4.70898 18.3337ZM6.33398 10.0003C7.48676 10.0003 8.4694 9.59408 9.2819 8.78158C10.0944 7.96908 10.5007 6.98644 10.5007 5.83366C10.5007 4.68088 10.0944 3.69824 9.2819 2.88574C8.4694 2.07324 7.48676 1.66699 6.33398 1.66699C5.18121 1.66699 4.19857 2.07324 3.38607 2.88574C2.57357 3.69824 2.16732 4.68088 2.16732 5.83366C2.16732 6.98644 2.57357 7.96908 3.38607 8.78158C4.19857 9.59408 5.18121 10.0003 6.33398 10.0003ZM6.33398 8.33366C6.22287 8.33366 6.12565 8.29199 6.04232 8.20866C5.95898 8.12533 5.91732 8.0281 5.91732 7.91699V5.41699C5.91732 5.30588 5.95898 5.20866 6.04232 5.12533C6.12565 5.04199 6.22287 5.00033 6.33398 5.00033C6.4451 5.00033 6.54232 5.04199 6.62565 5.12533C6.70898 5.20866 6.75065 5.30588 6.75065 5.41699V7.91699C6.75065 8.0281 6.70898 8.12533 6.62565 8.20866C6.54232 8.29199 6.4451 8.33366 6.33398 8.33366ZM6.33398 4.16699C6.22287 4.16699 6.12565 4.12533 6.04232 4.04199C5.95898 3.95866 5.91732 3.86144 5.91732 3.75033C5.91732 3.63921 5.95898 3.54199 6.04232 3.45866C6.12565 3.37533 6.22287 3.33366 6.33398 3.33366C6.4451 3.33366 6.54232 3.37533 6.62565 3.45866C6.70898 3.54199 6.75065 3.63921 6.75065 3.75033C6.75065 3.86144 6.70898 3.95866 6.62565 4.04199C6.54232 4.12533 6.4451 4.16699 6.33398 4.16699Z" fill="white"/>
</g>
</svg>
