<svg width="13" height="13" viewBox="0 0 13 13" fill="none" xmlns="http://www.w3.org/2000/svg">
<path d="M5.61328 7.625L4.26953 6.28125C4.15495 6.16667 4.00911 6.10938 3.83203 6.10938C3.65495 6.10938 3.50911 6.16667 3.39453 6.28125C3.27995 6.39583 3.22266 6.54167 3.22266 6.71875C3.22266 6.89583 3.27995 7.04167 3.39453 7.15625L5.17578 8.9375C5.30078 9.0625 5.44661 9.125 5.61328 9.125C5.77995 9.125 5.92578 9.0625 6.05078 8.9375L9.58203 5.40625C9.69661 5.29167 9.75391 5.14583 9.75391 4.96875C9.75391 4.79167 9.69661 4.64583 9.58203 4.53125C9.46745 4.41667 9.32161 4.35938 9.14453 4.35938C8.96745 4.35938 8.82161 4.41667 8.70703 4.53125L5.61328 7.625ZM6.48828 12.75C5.6237 12.75 4.8112 12.5859 4.05078 12.2578C3.29036 11.9297 2.62891 11.4844 2.06641 10.9219C1.50391 10.3594 1.05859 9.69792 0.730469 8.9375C0.402344 8.17708 0.238281 7.36458 0.238281 6.5C0.238281 5.63542 0.402344 4.82292 0.730469 4.0625C1.05859 3.30208 1.50391 2.64062 2.06641 2.07812C2.62891 1.51562 3.29036 1.07031 4.05078 0.742188C4.8112 0.414062 5.6237 0.25 6.48828 0.25C7.35286 0.25 8.16536 0.414062 8.92578 0.742188C9.6862 1.07031 10.3477 1.51562 10.9102 2.07812C11.4727 2.64062 11.918 3.30208 12.2461 4.0625C12.5742 4.82292 12.7383 5.63542 12.7383 6.5C12.7383 7.36458 12.5742 8.17708 12.2461 8.9375C11.918 9.69792 11.4727 10.3594 10.9102 10.9219C10.3477 11.4844 9.6862 11.9297 8.92578 12.2578C8.16536 12.5859 7.35286 12.75 6.48828 12.75Z" fill="#F2357B"/>
</svg>
