<svg width="25" height="25" viewBox="0 0 25 25" fill="none" xmlns="http://www.w3.org/2000/svg">
<g clip-path="url(#clip0_1801_2510)">
<path d="M1.77734 6.83547H25.0032M8.55154 6.83547V5.9918C8.55154 4.87302 9.06133 3.80006 9.96876 3.00897C10.8762 2.21787 12.1069 1.77344 13.3902 1.77344C14.6736 1.77344 15.9043 2.21787 16.8117 3.00897C17.7192 3.80006 18.229 4.87302 18.229 5.9918V6.83547M10.487 10.2102V19.4906M16.2935 10.2102V19.4906M4.68057 6.83547H22.0999V22.0216C22.0999 22.4691 21.896 22.8983 21.533 23.2147C21.1701 23.5311 20.6778 23.7089 20.1644 23.7089H6.61605C6.10273 23.7089 5.61043 23.5311 5.24746 23.2147C4.88449 22.8983 4.68057 22.4691 4.68057 22.0216V6.83547Z" stroke="white" stroke-linecap="round" stroke-linejoin="round"/>
</g>
<defs>
<clipPath id="clip0_1801_2510">
<rect width="24" height="24" fill="white" transform="translate(0.742188 0.0966797)"/>
</clipPath>
</defs>
</svg>
