<svg width="70" height="70" viewBox="0 0 70 70" fill="none" xmlns="http://www.w3.org/2000/svg">
<mask id="mask0_1801_3910" style="mask-type:alpha" maskUnits="userSpaceOnUse" x="0" y="0" width="70" height="70">
<rect width="70" height="70" fill="#D9D9D9"/>
</mask>
<g mask="url(#mask0_1801_3910)">
<path d="M8.74914 57.6037C7.69467 57.6037 7.00478 57.1036 6.67947 56.1034C6.35417 55.1031 6.6103 54.2926 7.44787 53.672L32.8117 34.635V29.1663C32.8117 28.5643 33.009 28.0492 33.4034 27.621C33.7979 27.1929 34.3055 26.9788 34.9262 26.9788C36.3958 27.0275 37.626 26.5563 38.617 25.5654C39.6079 24.5744 40.1034 23.3442 40.1034 21.8746C40.1034 20.4724 39.6154 19.2711 38.6394 18.2708C37.6634 17.2705 36.4743 16.7704 35.0721 16.7704C34.0475 16.7704 33.0977 17.063 32.2227 17.6482C31.3476 18.2334 30.712 19.0046 30.3156 19.9619C30.1286 20.3657 29.865 20.6639 29.5248 20.8565C29.1845 21.0491 28.7975 21.1454 28.3637 21.1454C27.556 21.1454 26.9475 20.8126 26.538 20.147C26.1286 19.4814 26.0865 18.7747 26.4118 18.0269C27.1822 16.3106 28.3329 14.9429 29.8641 13.9239C31.3954 12.905 33.107 12.3955 34.9991 12.3955C37.6316 12.3955 39.8696 13.2976 41.713 15.1018C43.5565 16.906 44.4782 19.115 44.4782 21.7288C44.4782 24.0995 43.7977 26.1187 42.4366 27.7865C41.0755 29.4542 39.3255 30.5442 37.1866 31.0564V34.635L62.5504 53.672C63.388 54.2926 63.6441 55.1031 63.3188 56.1034C62.9935 57.1036 62.3036 57.6037 61.2491 57.6037H8.74914ZM15.3115 53.2288H54.6868L34.9991 38.4491L15.3115 53.2288Z" fill="#F2357B"/>
</g>
</svg>
