<svg width="40" height="40" viewBox="0 0 40 40" fill="none" xmlns="http://www.w3.org/2000/svg">
<rect x="5" y="5" width="30" height="31" rx="10" fill="white"/>
<path d="M36 26.4135C36 32.4195 32.4195 36 26.4135 36H24.45C23.5425 36 22.8 35.2575 22.8 34.35V24.8295C22.8 24.384 23.163 24.0045 23.6085 24.0045L26.5125 23.955C26.7435 23.9385 26.9415 23.7735 26.991 23.5425L27.5685 20.391C27.5797 20.3196 27.5753 20.2466 27.5556 20.177C27.5358 20.1074 27.5012 20.043 27.4542 19.9881C27.4071 19.9332 27.3487 19.8891 27.283 19.859C27.2173 19.8289 27.1458 19.8133 27.0735 19.8135L23.559 19.863C23.097 19.863 22.734 19.5 22.7175 19.0545L22.6515 15.012C22.6515 14.748 22.866 14.517 23.1465 14.517L27.1065 14.451C27.387 14.451 27.6015 14.2365 27.6015 13.956L27.5355 9.996C27.5355 9.7155 27.321 9.501 27.0405 9.501L22.5855 9.567C21.9352 9.57688 21.2932 9.71499 20.6963 9.97343C20.0995 10.2319 19.5595 10.6055 19.1073 11.0731C18.6551 11.5406 18.2997 12.0927 18.0613 12.6978C17.8228 13.303 17.7062 13.9492 17.718 14.5995L17.8005 19.137C17.817 19.599 17.454 19.962 16.992 19.9785L15.012 20.0115C14.7315 20.0115 14.517 20.226 14.517 20.5065L14.5665 23.6415C14.5665 23.922 14.781 24.1365 15.0615 24.1365L17.0415 24.1035C17.5035 24.1035 17.8665 24.4665 17.883 24.912L18.0315 34.317C18.048 35.241 17.3055 36 16.3815 36H12.5865C6.5805 36 3 32.4195 3 26.397V12.5865C3 6.5805 6.5805 3 12.5865 3H26.4135C32.4195 3 36 6.5805 36 12.5865V26.4135Z" fill="#2405F2"/>
</svg>
