<svg width="40" height="40" viewBox="0 0 40 40" fill="none" xmlns="http://www.w3.org/2000/svg">
<rect x="5" y="5" width="30" height="31" rx="10" fill="white"/>
<path d="M26.9835 3.33398H13.0168C6.95016 3.33398 3.3335 6.95065 3.3335 13.0173V26.9673C3.3335 33.0507 6.95016 36.6673 13.0168 36.6673H26.9668C33.0335 36.6673 36.6502 33.0507 36.6502 26.984V13.0173C36.6668 6.95065 33.0502 3.33398 26.9835 3.33398ZM20.0002 26.4673C16.4335 26.4673 13.5335 23.5673 13.5335 20.0007C13.5335 16.434 16.4335 13.534 20.0002 13.534C23.5668 13.534 26.4668 16.434 26.4668 20.0007C26.4668 23.5673 23.5668 26.4673 20.0002 26.4673ZM29.8668 11.4673C29.7835 11.6673 29.6668 11.8507 29.5168 12.0173C29.3502 12.1673 29.1668 12.284 28.9668 12.3673C28.6635 12.4961 28.3287 12.5315 28.0052 12.4692C27.6816 12.4069 27.3839 12.2495 27.1502 12.0173C27.0002 11.8507 26.8835 11.6673 26.8002 11.4673C26.7146 11.267 26.6692 11.0518 26.6668 10.834C26.6668 10.6173 26.7168 10.4007 26.8002 10.2007C26.8835 9.98398 27.0002 9.81732 27.1502 9.65065C27.5335 9.26732 28.1168 9.08398 28.6502 9.20065C28.7668 9.21732 28.8668 9.25065 28.9668 9.30065C29.0668 9.33398 29.1668 9.38398 29.2668 9.45065C29.3502 9.50065 29.4335 9.58398 29.5168 9.65065C29.6668 9.81732 29.7835 9.98398 29.8668 10.2007C29.9502 10.4007 30.0002 10.6173 30.0002 10.834C30.0002 11.0507 29.9502 11.2673 29.8668 11.4673Z" fill="#F2357B"/>
</svg>
