<svg width="30" height="29" viewBox="0 0 30 29" fill="none" xmlns="http://www.w3.org/2000/svg">
<path d="M14.0417 7.17513L14.6324 7.93274L15.224 7.17582C16.3145 5.78071 18.0715 4.86328 20.0428 4.86328C23.3967 4.86328 26.067 7.47021 26.067 10.6324C26.067 11.9349 25.8501 13.1367 25.4729 14.2525L25.4713 14.2575C24.5664 16.9985 22.708 19.2175 20.6888 20.8787C18.6673 22.5416 16.5321 23.6058 15.1563 24.0539L15.1563 24.0539L15.1485 24.0565C15.0431 24.0921 14.8562 24.122 14.6331 24.122C14.4101 24.122 14.2231 24.0921 14.1178 24.0565L14.1178 24.0564L14.11 24.0539C12.7342 23.6058 10.599 22.5416 8.5775 20.8787C6.55821 19.2175 4.69987 16.9985 3.79497 14.2575L3.79499 14.2575L3.79329 14.2525C3.41617 13.1367 3.19922 11.9349 3.19922 10.6324C3.19922 7.47035 5.86928 4.86352 9.22301 4.86328C10.1625 4.86448 11.0875 5.07531 11.9244 5.47764C12.7614 5.87999 13.4856 6.46203 14.0417 7.17513Z" stroke="white" stroke-width="1.5"/>
</svg>
