<svg width="14" height="14" viewBox="0 0 14 14" fill="none" xmlns="http://www.w3.org/2000/svg">
<path d="M12.0291 4.92884C11.4166 2.23384 9.06579 1.02051 7.00079 1.02051H6.99495C4.93579 1.02051 2.57912 2.22801 1.96662 4.92301C1.28412 7.93301 3.12745 10.4822 4.79579 12.0863C5.38713 12.6587 6.17782 12.9787 7.00079 12.9788C7.79412 12.9788 8.58745 12.6813 9.19995 12.0863C10.8683 10.4822 12.7116 7.93884 12.0291 4.92884ZM7.00079 7.85134C6.75948 7.85134 6.52054 7.80381 6.29761 7.71147C6.07467 7.61913 5.87211 7.48378 5.70148 7.31315C5.53085 7.14252 5.3955 6.93996 5.30316 6.71702C5.21082 6.49409 5.16329 6.25515 5.16329 6.01384C5.16329 5.77254 5.21082 5.5336 5.30316 5.31066C5.3955 5.08773 5.53085 4.88516 5.70148 4.71453C5.87211 4.54391 6.07467 4.40856 6.29761 4.31621C6.52054 4.22387 6.75948 4.17634 7.00079 4.17634C7.48812 4.17634 7.9555 4.36993 8.3001 4.71453C8.64469 5.05913 8.83829 5.52651 8.83829 6.01384C8.83829 6.50118 8.64469 6.96855 8.3001 7.31315C7.9555 7.65775 7.48812 7.85134 7.00079 7.85134Z" fill="white"/>
</svg>
