<svg width="50" height="15" viewBox="0 0 50 15" fill="none" xmlns="http://www.w3.org/2000/svg">
<path d="M0.137784 14V0.909091H2.90554V11.718H8.51776V14H0.137784ZM21.8707 7.45455C21.8707 8.8821 21.6001 10.0966 21.0589 11.098C20.522 12.0994 19.7891 12.8643 18.8601 13.3928C17.9354 13.9169 16.8956 14.179 15.7408 14.179C14.5774 14.179 13.5334 13.9148 12.6087 13.3864C11.6839 12.858 10.9531 12.093 10.4162 11.0916C9.87926 10.0902 9.6108 8.87784 9.6108 7.45455C9.6108 6.02699 9.87926 4.8125 10.4162 3.81108C10.9531 2.80966 11.6839 2.04687 12.6087 1.52273C13.5334 0.994318 14.5774 0.730113 15.7408 0.730113C16.8956 0.730113 17.9354 0.994318 18.8601 1.52273C19.7891 2.04687 20.522 2.80966 21.0589 3.81108C21.6001 4.8125 21.8707 6.02699 21.8707 7.45455ZM19.0646 7.45455C19.0646 6.52983 18.9261 5.75 18.6491 5.11506C18.3764 4.48011 17.9908 3.99858 17.4922 3.67045C16.9936 3.34233 16.4098 3.17827 15.7408 3.17827C15.0717 3.17827 14.4879 3.34233 13.9893 3.67045C13.4908 3.99858 13.103 4.48011 12.826 5.11506C12.5533 5.75 12.4169 6.52983 12.4169 7.45455C12.4169 8.37926 12.5533 9.15909 12.826 9.79403C13.103 10.429 13.4908 10.9105 13.9893 11.2386C14.4879 11.5668 15.0717 11.7308 15.7408 11.7308C16.4098 11.7308 16.9936 11.5668 17.4922 11.2386C17.9908 10.9105 18.3764 10.429 18.6491 9.79403C18.9261 9.15909 19.0646 8.37926 19.0646 7.45455ZM32.6014 5.14062C32.5119 4.82955 32.3862 4.55469 32.2243 4.31605C32.0623 4.07315 31.8642 3.86861 31.6298 3.70241C31.3997 3.53196 31.1355 3.40199 30.8372 3.3125C30.5431 3.22301 30.2172 3.17827 29.8592 3.17827C29.1902 3.17827 28.6021 3.34446 28.095 3.67685C27.5922 4.00923 27.2001 4.4929 26.9189 5.12784C26.6376 5.75852 26.497 6.52983 26.497 7.44176C26.497 8.35369 26.6355 9.12926 26.9125 9.76847C27.1895 10.4077 27.5815 10.8956 28.0886 11.2322C28.5957 11.5646 29.1944 11.7308 29.8848 11.7308C30.5112 11.7308 31.046 11.62 31.4892 11.3984C31.9366 11.1726 32.2775 10.8551 32.5119 10.446C32.7505 10.0369 32.8699 9.55327 32.8699 8.99503L33.4324 9.07812H30.0574V6.99432H35.5353V8.64347C35.5353 9.79403 35.2924 10.7827 34.8066 11.6094C34.3208 12.4318 33.6518 13.0668 32.7995 13.5142C31.9473 13.9574 30.9714 14.179 29.872 14.179C28.6447 14.179 27.5666 13.9084 26.6376 13.3672C25.7086 12.8217 24.9842 12.0483 24.4643 11.0469C23.9487 10.0412 23.6909 8.84801 23.6909 7.46733C23.6909 6.40625 23.8443 5.46023 24.1511 4.62926C24.4622 3.79403 24.8968 3.08665 25.4551 2.5071C26.0133 1.92756 26.6632 1.48651 27.4047 1.18395C28.1461 0.881392 28.9494 0.730113 29.8145 0.730113C30.5559 0.730113 31.2463 0.838778 31.8855 1.05611C32.5247 1.26918 33.0914 1.57173 33.5858 1.96378C34.0843 2.35582 34.4913 2.82244 34.8066 3.36364C35.122 3.90057 35.3244 4.4929 35.4139 5.14062H32.6014ZM49.6442 7.45455C49.6442 8.8821 49.3736 10.0966 48.8324 11.098C48.2955 12.0994 47.5625 12.8643 46.6335 13.3928C45.7088 13.9169 44.669 14.179 43.5142 14.179C42.3509 14.179 41.3068 13.9148 40.3821 13.3864C39.4574 12.858 38.7266 12.093 38.1896 11.0916C37.6527 10.0902 37.3842 8.87784 37.3842 7.45455C37.3842 6.02699 37.6527 4.8125 38.1896 3.81108C38.7266 2.80966 39.4574 2.04687 40.3821 1.52273C41.3068 0.994318 42.3509 0.730113 43.5142 0.730113C44.669 0.730113 45.7088 0.994318 46.6335 1.52273C47.5625 2.04687 48.2955 2.80966 48.8324 3.81108C49.3736 4.8125 49.6442 6.02699 49.6442 7.45455ZM46.8381 7.45455C46.8381 6.52983 46.6996 5.75 46.4226 5.11506C46.1499 4.48011 45.7642 3.99858 45.2656 3.67045C44.767 3.34233 44.1832 3.17827 43.5142 3.17827C42.8452 3.17827 42.2614 3.34233 41.7628 3.67045C41.2642 3.99858 40.8764 4.48011 40.5994 5.11506C40.3267 5.75 40.1903 6.52983 40.1903 7.45455C40.1903 8.37926 40.3267 9.15909 40.5994 9.79403C40.8764 10.429 41.2642 10.9105 41.7628 11.2386C42.2614 11.5668 42.8452 11.7308 43.5142 11.7308C44.1832 11.7308 44.767 11.5668 45.2656 11.2386C45.7642 10.9105 46.1499 10.429 46.4226 9.79403C46.6996 9.15909 46.8381 8.37926 46.8381 7.45455Z" fill="white"/>
</svg>
