<svg width="30" height="30" viewBox="0 0 30 30" fill="none" xmlns="http://www.w3.org/2000/svg">
<path d="M4.7619 8.09524L25.8929 29.2857C26.369 29.7619 26.9345 30 27.5893 30C28.244 30 28.8095 29.7619 29.2857 29.2857C29.7619 28.8095 30 28.244 30 27.5893C30 26.9345 29.7619 26.369 29.2857 25.8929L8.09524 4.7619H26.1905C26.8651 4.7619 27.4306 4.53373 27.8869 4.07738C28.3433 3.62103 28.5714 3.05556 28.5714 2.38095C28.5714 1.70635 28.3433 1.14087 27.8869 0.684524C27.4306 0.228175 26.8651 0 26.1905 0H2.38095C1.70635 0 1.14087 0.228175 0.684523 0.684524C0.228174 1.14087 0 1.70635 0 2.38095V26.1905C0 26.8651 0.228174 27.4306 0.684523 27.8869C1.14087 28.3433 1.70635 28.5714 2.38095 28.5714C3.05556 28.5714 3.62103 28.3433 4.07738 27.8869C4.53373 27.4306 4.7619 26.8651 4.7619 26.1905V8.09524Z" fill="#F2357B"/>
</svg>
