<svg width="30" height="30" viewBox="0 0 30 30" fill="none" xmlns="http://www.w3.org/2000/svg">
<path d="M25.2381 21.9048L4.10714 0.714285C3.63095 0.238094 3.06548 0 2.41071 0C1.75595 0 1.19048 0.238094 0.714286 0.714285C0.238095 1.19048 0 1.75595 0 2.41071C0 3.06548 0.238095 3.63095 0.714286 4.10714L21.9048 25.2381H3.80952C3.13492 25.2381 2.56944 25.4663 2.1131 25.9226C1.65675 26.379 1.42857 26.9444 1.42857 27.619C1.42857 28.2937 1.65675 28.8591 2.1131 29.3155C2.56944 29.7718 3.13492 30 3.80952 30H27.619C28.2937 30 28.8591 29.7718 29.3155 29.3155C29.7718 28.8591 30 28.2937 30 27.619V3.80952C30 3.13492 29.7718 2.56944 29.3155 2.11309C28.8591 1.65674 28.2937 1.42857 27.619 1.42857C26.9444 1.42857 26.379 1.65674 25.9226 2.11309C25.4663 2.56944 25.2381 3.13492 25.2381 3.80952V21.9048Z" fill="#42AF4D"/>
</svg>
