<svg width="70" height="70" viewBox="0 0 70 70" fill="none" xmlns="http://www.w3.org/2000/svg">
<mask id="mask0_1801_3906" style="mask-type:alpha" maskUnits="userSpaceOnUse" x="0" y="0" width="70" height="70">
<rect width="70" height="70" fill="#D9D9D9"/>
</mask>
<g mask="url(#mask0_1801_3906)">
<path d="M34.999 41.4166C32.8115 41.4166 30.9522 40.651 29.4209 39.1197C27.8897 37.5885 27.124 35.7291 27.124 33.5416C27.124 31.3541 27.8897 29.4947 29.4209 27.9635C30.9522 26.4322 32.8115 25.6666 34.999 25.6666C37.1865 25.6666 39.0459 26.4322 40.5772 27.9635C42.1084 29.4947 42.874 31.3541 42.874 33.5416C42.874 35.7291 42.1084 37.5885 40.5772 39.1197C39.0459 40.651 37.1865 41.4166 34.999 41.4166ZM35.0082 53.9582C28.2976 53.9582 22.1845 52.1082 16.669 48.4081C11.1535 44.7081 7.09261 39.7526 4.48633 33.5416C7.09261 27.3306 11.1526 22.3751 16.6663 18.6751C22.1799 14.975 28.2908 13.125 34.999 13.125C41.4419 13.125 47.3359 14.8367 52.6813 18.26C58.0266 21.6834 62.0903 26.2911 64.8723 32.0833H59.8636C57.3358 27.5624 53.8602 24.0017 49.4365 21.401C45.0129 18.8003 40.2004 17.4999 34.999 17.4999C29.506 17.4999 24.4626 18.9461 19.8688 21.8385C15.2751 24.7308 11.7629 28.6319 9.33237 33.5416C11.7629 38.4513 15.2751 42.3524 19.8688 45.2447C24.4626 48.1371 29.506 49.5833 34.999 49.5833C35.9198 49.5833 36.8406 49.5393 37.7614 49.4514C38.6823 49.3636 39.6031 49.2318 40.5239 49.056V53.4758C39.6046 53.6136 38.6853 53.7284 37.766 53.8203C36.8468 53.9122 35.9275 53.9582 35.0082 53.9582ZM34.999 45.4326C36.0424 45.4326 37.0501 45.3017 38.0223 45.0399C38.9945 44.7781 39.8994 44.4098 40.737 43.9349C41.0362 41.9157 41.7176 40.0928 42.7814 38.4662C43.8453 36.8397 45.1961 35.4991 46.8339 34.4447C46.8526 34.2913 46.8666 34.1408 46.8759 33.9932C46.8853 33.8454 46.89 33.6949 46.89 33.5416C46.89 30.2386 45.7333 27.431 43.4199 25.1188C41.1064 22.8067 38.2973 21.6506 34.9924 21.6506C31.6876 21.6506 28.8806 22.8073 26.5716 25.1207C24.2626 27.4342 23.1081 30.2434 23.1081 33.5482C23.1081 36.8531 24.2641 39.66 26.5763 41.969C28.8884 44.278 31.696 45.4326 34.999 45.4326ZM48.9934 59.8195C48.2464 59.8195 47.6204 59.5669 47.1151 59.0616C46.6098 58.5564 46.3572 57.9303 46.3572 57.1834V48.854C46.3572 48.1024 46.6273 47.4799 47.1677 46.9863C47.708 46.4927 48.3633 46.2459 49.1336 46.2459V43.3292C49.1336 41.8407 49.664 40.5665 50.7247 39.5065C51.7854 38.4466 53.0605 37.9166 54.55 37.9166C56.0395 37.9166 57.3086 38.4466 58.3575 39.5065C59.4064 40.5665 59.9309 41.8407 59.9309 43.3292V46.2459C60.7011 46.2459 61.3564 46.4927 61.8968 46.9863C62.4371 47.4799 62.7073 48.1024 62.7073 48.854V57.1834C62.7073 57.9303 62.4546 58.5564 61.9493 59.0616C61.4441 59.5669 60.818 59.8195 60.0711 59.8195H48.9934ZM51.7137 46.2459H57.3507V43.3292C57.3507 42.5028 57.0899 41.8241 56.5683 41.2931C56.0467 40.7622 55.3726 40.4967 54.5462 40.4967C53.7199 40.4967 53.0412 40.7622 52.5102 41.2931C51.9792 41.8241 51.7137 42.5028 51.7137 43.3292V46.2459Z" fill="#F2357B"/>
</g>
</svg>
