<svg width="25" height="26" viewBox="0 0 25 26" fill="none" xmlns="http://www.w3.org/2000/svg">
<path d="M22.9163 23.4163L20.833 21.333M11.9788 22.3747C13.2784 22.3747 14.5652 22.1187 15.7658 21.6214C16.9664 21.1241 18.0573 20.3952 18.9763 19.4763C19.8952 18.5573 20.6241 17.4664 21.1214 16.2658C21.6187 15.0652 21.8747 13.7784 21.8747 12.4788C21.8747 11.1793 21.6187 9.89249 21.1214 8.69187C20.6241 7.49125 19.8952 6.40034 18.9763 5.48143C18.0573 4.56252 16.9664 3.8336 15.7658 3.33628C14.5652 2.83897 13.2784 2.58301 11.9788 2.58301C9.3543 2.58301 6.83726 3.6256 4.98143 5.48143C3.1256 7.33726 2.08301 9.8543 2.08301 12.4788C2.08301 15.1034 3.1256 17.6204 4.98143 19.4763C6.83726 21.3321 9.3543 22.3747 11.9788 22.3747Z" stroke="#F2357B" stroke-width="1.5" stroke-linecap="round" stroke-linejoin="round"/>
</svg>
