<svg width="30" height="30" viewBox="0 0 30 30" fill="none" xmlns="http://www.w3.org/2000/svg">
<mask id="mask0_1801_2751" style="mask-type:alpha" maskUnits="userSpaceOnUse" x="0" y="0" width="30" height="30">
<rect width="30" height="30" fill="#D9D9D9"/>
</mask>
<g mask="url(#mask0_1801_2751)">
<path d="M21.875 24.7594C20.8349 24.7594 19.9499 24.3944 19.2199 23.6644C18.49 22.9345 18.125 22.0495 18.125 21.0094C18.125 19.9693 18.49 19.0843 19.2199 18.3544C19.9499 17.6244 20.8349 17.2595 21.875 17.2595C22.915 17.2595 23.8 17.6244 24.53 18.3544C25.26 19.0843 25.6249 19.9693 25.6249 21.0094C25.6249 22.0495 25.26 22.9345 24.53 23.6644C23.8 24.3944 22.915 24.7594 21.875 24.7594ZM21.875 22.8844C22.3958 22.8844 22.8385 22.7021 23.2031 22.3375C23.5677 21.9729 23.75 21.5302 23.75 21.0094C23.75 20.4886 23.5677 20.0458 23.2031 19.6813C22.8385 19.3167 22.3958 19.1344 21.875 19.1344C21.3541 19.1344 20.9114 19.3167 20.5468 19.6813C20.1823 20.0458 20 20.4886 20 21.0094C20 21.5302 20.1823 21.9729 20.5468 22.3375C20.9114 22.7021 21.3541 22.8844 21.875 22.8844ZM14.2067 21.9469H5.3125C5.04688 21.9469 4.82422 21.857 4.64453 21.6772C4.46484 21.4975 4.375 21.2747 4.375 21.009C4.375 20.7432 4.46484 20.5206 4.64453 20.3411C4.82422 20.1617 5.04688 20.0719 5.3125 20.0719H14.2067C14.4723 20.0719 14.695 20.1618 14.8747 20.3416C15.0544 20.5213 15.1442 20.7441 15.1442 21.0098C15.1442 21.2756 15.0544 21.4982 14.8747 21.6776C14.695 21.8571 14.4723 21.9469 14.2067 21.9469ZM8.12497 12.7401C7.08493 12.7401 6.19992 12.3752 5.46994 11.6452C4.73998 10.9152 4.375 10.0302 4.375 8.9902C4.375 7.95014 4.73998 7.06513 5.46994 6.33517C6.19992 5.60521 7.08493 5.24023 8.12497 5.24023C9.16501 5.24023 10.05 5.60521 10.78 6.33517C11.51 7.06513 11.8749 7.95014 11.8749 8.9902C11.8749 10.0302 11.51 10.9152 10.78 11.6452C10.05 12.3752 9.16501 12.7401 8.12497 12.7401ZM8.12497 10.8652C8.6458 10.8652 9.08851 10.6829 9.45309 10.3183C9.81768 9.95375 9.99997 9.51104 9.99997 8.9902C9.99997 8.46937 9.81768 8.02666 9.45309 7.66208C9.08851 7.2975 8.6458 7.1152 8.12497 7.1152C7.60414 7.1152 7.16143 7.2975 6.79684 7.66208C6.43226 8.02666 6.24997 8.46937 6.24997 8.9902C6.24997 9.51104 6.43226 9.95375 6.79684 10.3183C7.16143 10.6829 7.60414 10.8652 8.12497 10.8652ZM24.6874 9.92767H15.7932C15.5276 9.92767 15.3049 9.83779 15.1253 9.65802C14.9456 9.47827 14.8557 9.25552 14.8557 8.98977C14.8557 8.72404 14.9456 8.50143 15.1253 8.32195C15.3049 8.14248 15.5276 8.05273 15.7932 8.05273H24.6874C24.9531 8.05273 25.1757 8.14261 25.3554 8.32236C25.5351 8.50213 25.6249 8.72488 25.6249 8.99061C25.6249 9.25636 25.5351 9.47898 25.3554 9.65845C25.1757 9.83793 24.9531 9.92767 24.6874 9.92767Z" fill="#F2357B"/>
</g>
</svg>
