<svg width="24" height="24" viewBox="0 0 24 24" fill="none" xmlns="http://www.w3.org/2000/svg">
<path d="M21.9795 15.65C21.5596 15.1324 21.029 14.7155 20.4268 14.43C19.8246 14.1445 19.166 13.9975 18.4995 14C17.4395 14 16.4595 14.37 15.6895 14.99C15.16 15.4085 14.7326 15.942 14.4398 16.5501C14.147 17.1583 13.9964 17.8251 13.9995 18.5C13.9995 19.91 14.6395 21.16 15.6495 21.98C16.4195 22.62 17.4195 23 18.4995 23C19.6395 23 20.6695 22.57 21.4695 21.88C21.9492 21.4569 22.3335 20.9369 22.5973 20.3542C22.861 19.7716 22.9981 19.1396 22.9995 18.5C22.9995 17.42 22.6195 16.42 21.9795 15.65ZM19.5295 18.78C19.5295 19.04 19.3895 19.29 19.1695 19.42L17.7595 20.26C17.6395 20.33 17.5095 20.37 17.3695 20.37C17.1195 20.37 16.8695 20.24 16.7295 20.01C16.5195 19.65 16.6295 19.19 16.9895 18.98L18.0295 18.36V17.1C18.0295 16.69 18.3695 16.35 18.7795 16.35C19.1895 16.35 19.5295 16.69 19.5295 17.1V18.78ZM14.7295 5.86V2.5C14.7295 2.22 14.5095 2 14.2295 2H9.76951C9.48951 2 9.26951 2.22 9.26951 2.5V5.86C9.26951 6.14 9.48951 6.36 9.76951 6.36H14.2295C14.5095 6.36 14.7295 6.14 14.7295 5.86ZM7.24851 2.02C4.68851 2.18 2.93851 3.5 2.28851 5.7C2.18851 6.03 2.42851 6.36 2.76851 6.36H7.26851C7.54851 6.36 7.76851 6.14 7.76851 5.86V2.52C7.76857 2.45262 7.755 2.38593 7.72863 2.32392C7.70227 2.26192 7.66364 2.20588 7.61507 2.15918C7.5665 2.11248 7.50899 2.07608 7.446 2.05216C7.38301 2.02824 7.31584 2.0173 7.24851 2.02ZM16.7495 2.009C19.3095 2.169 21.0595 3.489 21.7095 5.689C21.8095 6.019 21.5695 6.349 21.2295 6.349H16.7295C16.4495 6.349 16.2295 6.129 16.2295 5.849V2.509C16.2295 2.44162 16.243 2.37493 16.2694 2.31292C16.2958 2.25092 16.3344 2.19488 16.383 2.14818C16.4315 2.10148 16.489 2.06508 16.552 2.04116C16.615 2.01724 16.6822 2.0063 16.7495 2.009Z" fill="#F2357B"/>
<path d="M22 8.35937V12.7394C22 13.1094 21.61 13.3494 21.28 13.1794C20.135 12.5826 18.8282 12.3702 17.5532 12.5738C16.2781 12.7773 15.1024 13.3858 14.2 14.3094C13.1031 15.4273 12.4921 16.9332 12.5 18.4994C12.5 19.3094 12.82 20.3494 13.22 21.2194C13.38 21.5694 13.14 21.9994 12.75 21.9994H7.81C4.6 21.9994 2 19.3994 2 16.1894V8.35937C2 8.07937 2.22 7.85938 2.5 7.85938H21.5C21.78 7.85938 22 8.07937 22 8.35937Z" fill="#F2357B"/>
</svg>
