<svg width="225" height="604" viewBox="0 0 225 604" fill="none" xmlns="http://www.w3.org/2000/svg">
<g opacity="0.15">
<path d="M-234.614 466.276C-265.972 524.577 -157.478 546.741 -99.311 550.535C-85.5966 553.716 -45.4955 552.439 5.19332 521.889C55.8821 491.339 18.3828 465.015 16.7371 429.379C14.8858 389.289 85.6936 371.337 141.085 341.877C196.475 312.418 188.684 236.312 168.142 225.203C138.052 208.929 60.3636 181.435 47.7362 103.415C35.1088 25.3943 -23.3547 55.6397 -51.008 80.5149C-71.1272 103.171 -130.698 146.38 -208.026 137.966C-285.355 129.551 -257.956 270.448 -246.722 304.823C-234.115 343.4 -203.256 407.975 -234.614 466.276Z" stroke="#F2357B" stroke-width="2"/>
<path d="M-240.351 468.341C-269.666 523.285 -168.856 543.842 -114.786 547.252C-102.044 550.207 -64.7574 548.896 -17.5465 520.011C29.6645 491.126 -5.12755 466.46 -6.55974 432.934C-8.17097 395.216 57.7108 378.13 109.291 350.258C160.87 322.386 153.835 250.797 134.768 240.4C106.836 225.17 34.6821 199.513 23.1562 126.136C11.6303 52.7583 -42.8083 81.3779 -68.5868 104.86C-87.3545 126.233 -142.858 167.054 -214.73 159.349C-286.602 151.644 -261.515 284.143 -251.165 316.457C-239.549 352.722 -211.036 413.397 -240.351 468.341Z" stroke="#2405F2" stroke-width="2"/>
<path d="M-247.85 471.842C-274.599 521.47 -181.909 540.414 -132.221 543.682C-120.504 546.4 -86.2507 545.338 -42.9723 519.355C0.306111 493.372 -31.7424 470.931 -33.1711 440.584C-34.7783 406.443 25.6939 391.201 72.9895 366.149C120.285 341.098 113.581 276.283 96.0272 266.809C70.3137 252.932 3.93511 229.469 -6.90123 163.021C-17.7376 96.5727 -67.6573 122.291 -91.2626 143.457C-108.434 162.737 -159.291 199.495 -225.35 192.279C-291.409 185.064 -267.914 305.065 -258.296 334.346C-247.502 367.205 -221.101 422.215 -247.85 471.842Z" stroke="#F2357B" stroke-width="2"/>
<path d="M-255.61 474.41C-279.919 519.676 -195.916 536.831 -150.876 539.75C-140.257 542.213 -109.205 541.204 -69.9397 517.468C-30.675 493.732 -59.7007 473.317 -60.959 445.657C-62.3745 414.54 -7.53616 400.574 35.3692 377.683C78.2746 354.791 72.2756 295.722 56.3742 287.108C33.0809 274.49 -27.0649 253.185 -36.8077 192.631C-46.5506 132.078 -91.8356 155.581 -113.26 174.901C-128.85 192.496 -174.998 226.062 -234.874 219.565C-294.749 213.069 -273.596 322.419 -264.913 349.096C-255.168 379.034 -231.301 429.143 -255.61 474.41Z" stroke="#2405F2" stroke-width="2"/>
<path d="M-264.533 477.872C-285.932 517.573 -211.78 532.729 -172.03 535.344C-162.656 537.517 -135.254 536.668 -100.631 515.882C-66.0083 495.096 -91.6471 477.143 -92.79 452.865C-94.0757 425.552 -45.698 413.358 -7.86155 393.317C29.9749 373.276 24.6115 321.424 10.5686 313.845C-10.0022 302.743 -63.105 283.973 -71.7741 230.814C-80.4432 177.656 -120.379 198.231 -139.263 215.163C-153 230.588 -193.686 259.994 -246.533 254.221C-299.38 248.449 -280.584 344.45 -272.89 367.874C-264.255 394.162 -243.134 438.17 -264.533 477.872Z" stroke="#2405F2" stroke-width="2"/>
</g>
</svg>
