<svg width="652" height="620" viewBox="0 0 652 620" fill="none" xmlns="http://www.w3.org/2000/svg">
<g opacity="0.25">
<path d="M86.7024 262.578C21.1979 272.144 68.0605 372.474 99.6798 421.444C105.299 434.352 130.224 465.792 184.965 488.288C239.706 510.784 238.495 464.984 266.13 442.424C297.22 417.044 353.835 463.204 410.503 490.125C467.171 517.047 523.64 465.433 520.319 442.317C515.453 408.456 491.23 329.686 546.355 273.048C601.479 216.41 542.349 187.489 505.894 180.109C475.71 177.456 405.51 155.372 366.181 88.2626C326.852 21.153 230.041 127.126 209.133 156.634C185.669 189.748 152.207 253.013 86.7024 262.578Z" stroke="#F2357B" stroke-width="2"/>
<path d="M81.6247 259.202C20.0338 268.407 63.6071 361.609 93.0927 407.06C98.3138 419.053 121.589 448.213 172.92 468.908C224.252 489.604 223.323 446.965 249.392 425.834C278.718 402.061 331.703 444.781 384.824 469.589C437.946 494.396 491.239 446.082 488.224 424.574C483.807 393.068 461.407 319.838 513.46 266.851C565.513 213.864 510.087 187.206 475.868 180.501C447.52 178.169 381.662 157.928 345.015 95.6226C308.368 33.3174 216.923 132.429 197.143 159.999C174.945 190.939 143.216 249.997 81.6247 259.202Z" stroke="#2405F2" stroke-width="2"/>
<path d="M74.3439 255.267C18.5515 263.364 58.5805 349.084 85.569 390.932C90.37 401.96 111.636 428.833 158.294 448.1C204.951 467.367 203.871 428.258 227.389 409.024C253.846 387.386 302.126 426.862 350.429 449.91C398.733 472.958 446.783 428.946 443.929 409.205C439.748 380.286 419.028 313.001 465.928 264.697C512.827 216.394 462.424 191.636 431.36 185.295C405.644 182.998 345.819 164.066 312.243 106.721C278.667 49.3754 196.308 139.76 178.528 164.933C158.575 193.184 130.136 247.169 74.3439 255.267Z" stroke="#F2357B" stroke-width="2"/>
<path d="M67.6575 250.565C16.8207 258.024 53.1094 335.702 77.6084 373.609C81.9594 383.603 101.276 407.937 143.737 425.321C186.198 442.704 185.293 407.23 206.754 389.735C230.897 370.053 274.794 405.764 318.747 426.574C362.699 447.385 406.557 407.364 403.997 389.461C400.247 363.236 381.509 302.242 424.327 258.33C467.144 214.418 421.283 192.061 393 186.372C369.58 184.339 315.124 167.287 284.656 115.335C254.188 63.3831 178.986 145.54 162.74 168.411C144.507 194.079 118.494 243.107 67.6575 250.565Z" stroke="#2405F2" stroke-width="2"/>
<path d="M59.5595 245.464C14.9256 251.942 46.9487 320.518 68.5395 353.996C72.3804 362.818 89.3936 384.317 126.719 399.73C164.045 415.144 163.181 383.857 181.995 368.47C203.161 351.159 241.785 382.739 280.428 401.178C319.071 419.617 357.511 384.407 355.227 368.614C351.883 345.479 335.307 291.651 372.827 253.008C410.346 214.365 370.024 194.559 345.173 189.486C324.6 187.648 276.739 172.503 249.878 126.627C223.018 80.7505 157.131 153.058 142.907 173.197C126.944 195.798 104.193 238.986 59.5595 245.464Z" stroke="#2405F2" stroke-width="2"/>
</g>
</svg>
