<svg width="386" height="460" viewBox="0 0 386 460" fill="none" xmlns="http://www.w3.org/2000/svg">
<g opacity="0.15">
<path d="M532.335 215.649C576.6 166.425 476.432 119.215 420.815 101.763C408.243 95.4278 368.979 87.1783 312.5 104.865C256.022 122.552 286.226 157.002 279.392 192.016C271.704 231.406 198.659 232.091 137.87 247.606C77.0806 263.121 66.6406 338.908 83.9697 354.563C109.354 377.496 178.33 422.594 172.135 501.386C165.941 580.178 229.901 564.627 262.655 547.003C287.565 529.751 355.668 501.866 428.809 528.341C501.95 554.816 508.672 411.438 505.892 375.381C502.772 334.916 488.071 264.873 532.335 215.649Z" stroke="#F2357B" stroke-width="2"/>
<path d="M538.398 214.999C579.883 168.553 486.801 124.724 435.074 108.615C423.394 102.728 386.856 95.1784 334.15 112.071C281.445 128.963 309.411 161.162 302.869 194.075C295.508 231.102 227.455 232.113 170.744 246.987C114.034 261.861 103.928 333.081 119.993 347.695C143.527 369.102 207.56 411.105 201.394 485.126C195.228 559.147 254.893 544.223 285.496 527.509C308.789 511.184 372.376 484.657 440.383 509.152C508.39 533.646 515.371 398.973 512.962 365.128C510.259 327.145 496.914 261.445 538.398 214.999Z" stroke="#2405F2" stroke-width="2"/>
<path d="M546.513 213.372C584.246 171.484 498.672 131.144 451.169 116.209C440.428 110.796 406.896 103.722 358.698 118.725C310.5 133.728 336.328 163.116 330.535 192.94C324.017 226.491 261.655 226.99 209.775 240.137C157.894 253.285 149.07 317.845 163.883 331.204C185.582 350.772 244.523 389.277 239.327 456.402C234.13 523.527 288.718 510.352 316.662 495.374C337.908 480.705 396.019 457.027 458.494 479.669C520.969 502.312 526.54 380.16 524.124 349.435C521.413 314.955 508.78 255.26 546.513 213.372Z" stroke="#F2357B" stroke-width="2"/>
<path d="M554.66 212.714C588.991 174.485 511.433 137.939 468.363 124.444C458.629 119.539 428.22 113.171 384.453 126.94C340.687 140.71 364.057 167.414 358.734 194.586C352.745 225.154 296.16 225.746 249.056 237.834C201.952 249.922 193.802 308.733 207.213 320.865C226.859 338.637 280.254 373.571 275.391 434.71C270.527 495.848 320.088 483.73 345.476 470.028C364.787 456.622 417.567 434.931 474.205 455.412C530.842 475.894 536.168 364.643 534.044 336.669C531.66 305.276 520.33 250.943 554.66 212.714Z" stroke="#2405F2" stroke-width="2"/>
<path d="M564.149 211.462C594.335 177.952 525.876 145.679 487.874 133.732C479.281 129.401 452.456 123.742 413.897 135.744C375.339 147.747 396.001 171.257 391.366 195.116C386.152 221.957 336.263 222.356 294.758 232.874C253.254 243.392 246.195 295.04 258.045 305.727C275.404 321.382 322.557 352.186 318.4 405.886C314.243 459.586 357.913 449.046 380.268 437.064C397.265 425.328 443.754 406.385 493.734 424.5C543.714 442.614 548.17 344.892 546.238 320.312C544.069 292.728 533.962 244.972 564.149 211.462Z" stroke="#2405F2" stroke-width="2"/>
</g>
</svg>
